<svg id="Layer_1" data-name="Layer 1" xmlns="http://www.w3.org/2000/svg" viewBox="0 0 72 108.32"><defs><style>.cls-1{fill:#003da5;}.cls-2{fill:#fff;}</style></defs><path class="cls-1" d="M82.71,144v-1.53h-.44a.13.13,0,0,1-.13-.13v-.24a.15.15,0,0,1,.13-.14h1.41a.14.14,0,0,1,.14.14v.24a.13.13,0,0,1-.14.13h-.44V144a.13.13,0,0,1-.13.13h-.26A.13.13,0,0,1,82.71,144ZM84,144,84.4,142a.12.12,0,0,1,.13-.1h0a.11.11,0,0,1,.11.08l.6,1.27.61-1.27a.14.14,0,0,1,.12-.08h0a.13.13,0,0,1,.13.1l.36,2a.12.12,0,0,1-.13.15h-.26A.15.15,0,0,1,86,144l-.15-.86-.44.94a.11.11,0,0,1-.11.06h0a.11.11,0,0,1-.11-.07l-.42-.93-.17.87a.14.14,0,0,1-.13.11h-.25A.13.13,0,0,1,84,144Z" transform="translate(-36 -35.84)"/><path class="cls-1" d="M70.54,143.54a76.74,76.74,0,0,1-17.05-10.67C42.05,123.39,36,112.16,36,100.39V52H57a5.74,5.74,0,0,1-.13-1.24,6.21,6.21,0,0,1,6.21-6.21h1.45v-5h3.73V35.84h7.44v3.72h3.73v5H80.9A6.21,6.21,0,0,1,87,52h21v48.41c0,11.77-6,23-17.49,32.48a76.74,76.74,0,0,1-17.05,10.67l-1.46.62Z" transform="translate(-36 -35.84)"/><path class="cls-2" d="M72,141.46l-.49-.2A74.49,74.49,0,0,1,55.07,131c-10.85-9-16.59-19.55-16.59-30.56V54.46H61.55l-1.09-1.09A3.73,3.73,0,0,1,63.1,47h7.66V44.53H67V42.05h3.72V38.32h2.48v3.73H77v2.48H73.24V47H80.9a3.79,3.79,0,0,1,2.64,1.09,3.74,3.74,0,0,1,0,5.27l-1.09,1.09h23.07v45.93c0,11-5.74,21.58-16.59,30.56a74.24,74.24,0,0,1-16.44,10.31ZM42.77,110.65c2.34,6.51,7,12.65,13.84,18.35A73.52,73.52,0,0,0,72,138.75,73.52,73.52,0,0,0,87.39,129c6.87-5.7,11.5-11.84,13.85-18.35H88.72a5.34,5.34,0,0,1-2.2-10.2,4.54,4.54,0,0,0-2.59-8.26c-6.74,0-8,11.3-8.2,14.68,0,.5,0,.93,0,1.3h3.41v2.48h-5.9v1.19a7.5,7.5,0,0,0,7.49,7.49H82v1.24a5.19,5.19,0,0,1-2.19,4.07,7.33,7.33,0,0,1-3.11,1.42,10.19,10.19,0,0,1-4,6.66l-.71.49-.71-.49a10.24,10.24,0,0,1-4-6.66,7.33,7.33,0,0,1-3.11-1.42,5.2,5.2,0,0,1-2.2-4.07v-1.24h1.25a7.5,7.5,0,0,0,7.48-7.49v-1.19H64.88v-2.49h3.4q0-.6,0-1.41c-.24-3.52-1.52-14.57-8.18-14.57a4.54,4.54,0,0,0-2.6,8.26,5.34,5.34,0,0,1-2.2,10.2Zm22.06,11a4.65,4.65,0,0,0,3.66,2h1.24v1.25A7.28,7.28,0,0,0,72,130.06a7.31,7.31,0,0,0,2.24-5.12v-1.25h1.25a4.67,4.67,0,0,0,3.66-2,10,10,0,0,1-7.16-5A10,10,0,0,1,64.83,121.69Zm21-16.38a2.86,2.86,0,0,0,2.85,2.86H102a30,30,0,0,0,1-7.78V56.94H41v43.45a30,30,0,0,0,1,7.78H55.28a2.86,2.86,0,0,0,2.85-2.86c0-.9-.42-1.73-1.82-2.66-7.26-1.57-10.94-5-10.94-10.1a9.92,9.92,0,0,1,9.91-9.92c4.44,0,8.53,3,11.52,8.39.16.28.32.57.47.87a22.72,22.72,0,0,0-.86-4.08c-2.08-5.93-3.06-9.14-3.06-11.35,0-3.61,2.5-7.06,4.51-9.84l.21-.29c1.52-2.09,2.88-4,2.9-4l1-1.45,1,1.45s1.38,2,2.9,4l.2.29c2,2.77,4.52,6.23,4.52,9.84,0,2.22-1,5.43-3.06,11.35a21.41,21.41,0,0,0-.87,4.08c.17-.32.33-.56.51-.87,3-5.41,7.08-8.39,11.52-8.39a9.92,9.92,0,0,1,9.91,9.92c0,5.13-3.68,8.53-10.93,10.1C86.3,103.58,85.87,104.41,85.87,105.31Zm-15.13,2.86h2.48c.27-10.23.82-17.84,2-21.18,1.94-5.54,2.93-8.68,2.93-10.53,0-2.81-2.24-5.9-4-8.38l-.2-.29c-.71-1-1.38-1.92-1.91-2.65-.52.73-1.19,1.68-1.9,2.65l-.21.29c-1.8,2.48-4,5.57-4,8.38,0,1.84,1,5,2.92,10.53C69.92,90.3,70.39,97.94,70.74,108.17Zm-15.46-23a7.43,7.43,0,0,0-7.43,7.43c0,3.74,2.72,5.67,5.7,6.76a7,7,0,0,1,6.53-9.6,7.77,7.77,0,0,1,3.48.79C61.41,87.31,58.59,85.12,55.28,85.12Zm28.65,4.59a7,7,0,0,1,6.52,9.6c3-1.09,5.7-3,5.7-6.76a7.43,7.43,0,0,0-7.43-7.43c-3.31,0-6.13,2.19-8.28,5.38A7.92,7.92,0,0,1,83.93,89.71ZM73.24,54.46h5.69l2.85-2.85a1.23,1.23,0,0,0,0-1.75,1.26,1.26,0,0,0-.88-.37H73.24Zm-8.17,0h5.69v-5H63.1a1.25,1.25,0,0,0-.88,2.12Z" transform="translate(-36 -35.84)"/></svg>